<svg width="64" height="64" viewBox="0 0 64 64" xmlns="http://www.w3.org/2000/svg">
  <rect width="64" height="64" rx="14" fill="#FFE4E1"/>
  <g transform="translate(32, 30)">
    <!-- Fork tines rounded -->
    <rect x="-8" y="-25" width="3.5" height="11" rx="1.75" fill="#C0C7CC" stroke="#8E9AA0" stroke-width="1" stroke-linejoin="round"/>
    <rect x="-3" y="-25" width="3.5" height="11" rx="1.75" fill="#C0C7CC" stroke="#8E9AA0" stroke-width="1" stroke-linejoin="round"/>
    <rect x="2" y="-25" width="3.5" height="11" rx="1.75" fill="#C0C7CC" stroke="#8E9AA0" stroke-width="1" stroke-linejoin="round"/>
    <rect x="7" y="-25" width="3.5" height="11" rx="1.75" fill="#C0C7CC" stroke="#8E9AA0" stroke-width="1" stroke-linejoin="round"/>
    <!-- Connector rounded -->
    <rect x="-9" y="-15" width="21" height="5.5" rx="2.75" fill="#C0C7CC" stroke="#8E9AA0" stroke-width="1"/>
    <!-- Neck smooth -->
    <path d="M-5 -10 Q-5 -2 -5 2 L8 2 Q8 -2 8 -10 Z" fill="#C0C7CC" stroke="#8E9AA0" stroke-width="1" stroke-linejoin="round"/>
    <!-- Uniform body rounded -->
    <path d="M-12 2 Q-13 1 -12 0 L14 0 Q15 1 14 2 L15 16 Q15 17 14 17 L-12 17 Q-13 17 -13 16 Z" fill="white" stroke="#2D3436" stroke-width="1.2" stroke-linejoin="round"/>
    <!-- Lapels curved -->
    <path d="M-12 1 Q-4 8 1 11 Q6 8 14 1" fill="none" stroke="#2D3436" stroke-width="1.2" stroke-linejoin="round"/>
    <!-- Red belt rounded -->
    <rect x="-13" y="15.5" width="28" height="4" rx="2" fill="#E74C3C" stroke="#C0392B" stroke-width="0.8"/>
    <circle cx="1" cy="17.5" r="2.2" fill="#C0392B"/>
    <!-- Belt tails curved -->
    <path d="M0 19.5 Q-2 23 -3 26 Q-2 26 -1 25 Q0 22 1 25 Q2 26 3 26 Q2 23 0 19.5 Z" fill="#E74C3C"/>
    <!-- Lower uniform flared rounded -->
    <path d="M-12 19.5 Q-14 25 -15 29 Q-15 30 -14 30 L16 30 Q17 30 17 29 Q16 25 14 19.5 Z" fill="white" stroke="#2D3436" stroke-width="1.2" stroke-linejoin="round"/>
    <!-- Handle rounded -->
    <path d="M-3 30 Q-3 34 1 36 Q5 34 5 30" fill="#C0C7CC" stroke="#8E9AA0" stroke-width="1" stroke-linejoin="round"/>
  </g>
</svg>
